<svg xmlns="http://www.w3.org/2000/svg" viewBox="0 0 969 360" width="969" height="360" xmlns:c2pa="http://c2pa.org/manifest"><metadata><c2pa:manifest>AAAWgmp1bWIAAAAeanVtZGMycGEAEQAQgAAAqgA4m3EDYzJwYQAAABZcanVtYgAAAEdqdW1kYzJtYQARABCAAACqADibcQN1cm46YzJwYTpiMzE4OWM0Ni1jZDY2LTQ5M2EtYmEwOS03YTQzY2UzM2YyZDgAAAADl2p1bWIAAAApanVtZGMyYXMAEQAQgAAAqgA4m3EDYzJwYS5hc3NlcnRpb25zAAAAALxqdW1iAAAARGp1bWRjYm9yABEAEIAAAKoAOJtxE2MycGEuaW5ncmVkaWVudC52MwAAAAAYYzJzaL/4TCPFCkf4BH7se/BDKIYAAABwY2JvcqNpZGM6Zm9ybWF0bWltYWdlL3N2Zyt4bWxqaW5zdGFuY2VJRHgseG1wOmlpZDo4Mjc1YmZlNS02MDgxLTRhODktODgzMi0yNGI1ODg2M2U4ZDJscmVsYXRpb25zaGlwaHBhcmVudE9mAAAB4mp1bWIAAABBanVtZGNib3IAEQAQgAAAqgA4m3ETYzJwYS5hY3Rpb25zLnYyAAAAABhjMnNoQc7oVO9c2Hi/+NqEgwG+JgAAAZljYm9yomdhY3Rpb25zgqJmYWN0aW9ua2MycGEub3BlbmVkanBhcmFtZXRlcnOha2luZ3JlZGllbnRzgaJjdXJseC1zZWxmI2p1bWJmPWMycGEuYXNzZXJ0aW9ucy9jMnBhLmluZ3JlZGllbnQudjNkaGFzaFggX659l2xFZ2e3Tnj0JBj57ChtkPd5pl2K5QIWzyDpxQakZmFjdGlvbngdY29tLmFudGhyb3BpYy5jbGF1ZGUucHJvdmlkZWRqcGFyYW1ldGVyc6F4H2NvbS5hbnRocm9waWMub3JpZ2luLWNvbmZpZGVuY2VndW5rbm93bmtkZXNjcmlwdGlvbnhmQ2xhdWRlIHByb3ZpZGVkIHRoaXMgZmlsZSBhdCB0aGUgcmVxdWVzdCBvZiBhIHVzZXIgYW5kIG1heSBoYXZlIGNyZWF0ZWQgb3IgbW9kaWZpZWQgdGhlIGZpbGUgY29udGVudHMubXNvZnR3YXJlQWdlbnShZG5hbWVmQ2xhdWRlcmFsbEFjdGlvbnNJbmNsdWRlZPUAAADIanVtYgAAAEBqdW1kY2JvcgARABCAAACqADibcRNjMnBhLmhhc2guZGF0YQAAAAAYYzJzaMKVMj3nBSfVZvdygR0bPL8AAACAY2JvcqVjYWxnZnNoYTI1NmNwYWRNAAAAAAAAAAAAAAAAAGRoYXNoWCBmhZ3UlaYvlph9mEenlESWft2CbsHKYmhfGs+F4hIchGRuYW1lbmp1bWJmIG1hbmlmZXN0amV4Y2x1c2lvbnOBomVzdGFydBiWZmxlbmd0aBkeBAAAAj5qdW1iAAAAJ2p1bWRjMmNsABEAEIAAAKoAOJtxA2MycGEuY2xhaW0udjIAAAACD2Nib3KlY2FsZ2ZzaGEyNTZpc2lnbmF0dXJleE1zZWxmI2p1bWJmPS9jMnBhL3VybjpjMnBhOmIzMTg5YzQ2LWNkNjYtNDkzYS1iYTA5LTdhNDNjZTMzZjJkOC9jMnBhLnNpZ25hdHVyZWppbnN0YW5jZUlEeCx4bXA6aWlkOjcyZWNlNTBlLWYzMDYtNDliMy1hYmU5LWEwZGY4ODFjMTgxYXJjcmVhdGVkX2Fzc2VydGlvbnODomN1cmx4LXNlbGYjanVtYmY9YzJwYS5hc3NlcnRpb25zL2MycGEuaW5ncmVkaWVudC52M2RoYXNoWCBfrn2XbEVnZ7dOePQkGPnsKG2Q93mmXYrlAhbPIOnFBqJjdXJseCpzZWxmI2p1bWJmPWMycGEuYXNzZXJ0aW9ucy9jMnBhLmFjdGlvbnMudjJkaGFzaFggEnpluwDETGDm/lAlsMJYgZiMEgwKZA072rwnGMYgD6KiY3VybHgpc2VsZiNqdW1iZj1jMnBhLmFzc2VydGlvbnMvYzJwYS5oYXNoLmRhdGFkaGFzaFggw4dqCp3QVJZ/E/h4m+ZjvRFXSGRvzsyv4+dhUHgMCEx0Y2xhaW1fZ2VuZXJhdG9yX2luZm+jZG5hbWVvQW50aHJvcGljIEZpbGVzZ3ZlcnNpb25lMS4wLjBrc3BlY1ZlcnNpb25lMi40LjAAABA4anVtYgAAAChqdW1kYzJjcwARABCAAACqADibcQNjMnBhLnNpZ25hdHVyZQAAABAIY2JvctKEWQISogEmGCFZAgowggIGMIIBjaADAgECAhRA5aAK7sI50L64g/oGQgU9Z1UTADAKBggqhkjOPQQDAzBJMRcwFQYDVQQKEw5BbnRocm9waWMsIFBCQzEuMCwGA1UEAxMlQW50aHJvcGljIENvbnRlbnQgQ3JlZGVudGlhbHMgUm9vdCBDQTAeFw0yNjA4MDcxODQzNTZaFw0yODA4MDYxOTQzNTZaMEQxFzAVBgNVBAoTDkFudGhyb3BpYywgUEJDMSkwJwYDVQQDEyBBbnRocm9waWMgQ2xhdWRlIENvbnRlbnQgU2lnbmluZzBZMBMGByqGSM49AgEGCCqGSM49AwEHA0IABJh6CmvLUBgFFNU0vUKlOVtE6djd17L5SuwX0LemFisBM3dkd/3cyjxFA3Qo5S46fX0/ihY0VZ7mfb9KF703t5OjWDBWMA4GA1UdDwEB/wQEAwIHgDAVBgNVHSUEDjAMBgorBgEEAYPoXgIBMAwGA1UdEwEB/wQCMAAwHwYDVR0jBBgwFoAUzlHiBIFOZFsj+OPEz5o+nMHXXMIwCgYIKoZIzj0EAwMDZwAwZAIwMXMdFJ4BetLLVY7ORuE9noqbbAZOZn/aArXyTwFAZfKrPzxF2vPoJNf1+UCdg1XGAjBwX1zd9WGqYkqmL5SFqw1QySjr1zJfpJM9+1rdDwSPLMOPOjKuiXjoU/pUUeG9RwmhY3BhZFkNngAAAAAAAAAAAAAAAAAAAAAAAAAAAAAAAAAAAAAAAAAAAAAAAAAAAAAAAAAAAAAAAAAAAAAAAAAAAAAAAAAAAAAAAAAAAAAAAAAAAAAAAAAAAAAAAAAAAAAAAAAAAAAAAAAAAAAAAAAAAAAAAAAAAAAAAAAAAAAAAAAAAAAAAAAAAAAAAAAAAAAAAAAAAAAAAAAAAAAAAAAAAAAAAAAAAAAAAAAAAAAAAAAAAAAAAAAAAAAAAAAAAAAAAAAAAAAAAAAAAAAAAAAAAAAAAAAAAAAAAAAAAAAAAAAAAAAAAAAAAAAAAAAAAAAAAAAAAAAAAAAAAAAAAAAAAAAAAAAAAAAAAAAAAAAAAAAAAAAAAAAAAAAAAAAAAAAAAAAAAAAAAAAAAAAAAAAAAAAAAAAAAAAAAAAAAAAAAAAAAAAAAAAAAAAAAAAAAAAAAAAAAAAAAAAAAAAAAAAAAAAAAAAAAAAAAAAAAAAAAAAAAAAAAAAAAAAAAAAAAAAAAAAAAAAAAAAAAAAAAAAAAAAAAAAAAAAAAAAAAAAAAAAAAAAAAAAAAAAAAAAAAAAAAAAAAAAAAAAAAAAAAAAAAAAAAAAAAAAAAAAAAAAAAAAAAAAAAAAAAAAAAAAAAAAAAAAAAAAAAAAAAAAAAAAAAAAAAAAAAAAAAAAAAAAAAAAAAAAAAAAAAAAAAAAAAAAAAAAAAAAAAAAAAAAAAAAAAAAAAAAAAAAAAAAAAAAAAAAAAAAAAAAAAAAAAAAAAAAAAAAAAAAAAAAAAAAAAAAAAAAAAAAAAAAAAAAAAAAAAAAAAAAAAAAAAAAAAAAAAAAAAAAAAAAAAAAAAAAAAAAAAAAAAAAAAAAAAAAAAAAAAAAAAAAAAAAAAAAAAAAAAAAAAAAAAAAAAAAAAAAAAAAAAAAAAAAAAAAAAAAAAAAAAAAAAAAAAAAAAAAAAAAAAAAAAAAAAAAAAAAAAAAAAAAAAAAAAAAAAAAAAAAAAAAAAAAAAAAAAAAAAAAAAAAAAAAAAAAAAAAAAAAAAAAAAAAAAAAAAAAAAAAAAAAAAAAAAAAAAAAAAAAAAAAAAAAAAAAAAAAAAAAAAAAAAAAAAAAAAAAAAAAAAAAAAAAAAAAAAAAAAAAAAAAAAAAAAAAAAAAAAAAAAAAAAAAAAAAAAAAAAAAAAAAAAAAAAAAAAAAAAAAAAAAAAAAAAAAAAAAAAAAAAAAAAAAAAAAAAAAAAAAAAAAAAAAAAAAAAAAAAAAAAAAAAAAAAAAAAAAAAAAAAAAAAAAAAAAAAAAAAAAAAAAAAAAAAAAAAAAAAAAAAAAAAAAAAAAAAAAAAAAAAAAAAAAAAAAAAAAAAAAAAAAAAAAAAAAAAAAAAAAAAAAAAAAAAAAAAAAAAAAAAAAAAAAAAAAAAAAAAAAAAAAAAAAAAAAAAAAAAAAAAAAAAAAAAAAAAAAAAAAAAAAAAAAAAAAAAAAAAAAAAAAAAAAAAAAAAAAAAAAAAAAAAAAAAAAAAAAAAAAAAAAAAAAAAAAAAAAAAAAAAAAAAAAAAAAAAAAAAAAAAAAAAAAAAAAAAAAAAAAAAAAAAAAAAAAAAAAAAAAAAAAAAAAAAAAAAAAAAAAAAAAAAAAAAAAAAAAAAAAAAAAAAAAAAAAAAAAAAAAAAAAAAAAAAAAAAAAAAAAAAAAAAAAAAAAAAAAAAAAAAAAAAAAAAAAAAAAAAAAAAAAAAAAAAAAAAAAAAAAAAAAAAAAAAAAAAAAAAAAAAAAAAAAAAAAAAAAAAAAAAAAAAAAAAAAAAAAAAAAAAAAAAAAAAAAAAAAAAAAAAAAAAAAAAAAAAAAAAAAAAAAAAAAAAAAAAAAAAAAAAAAAAAAAAAAAAAAAAAAAAAAAAAAAAAAAAAAAAAAAAAAAAAAAAAAAAAAAAAAAAAAAAAAAAAAAAAAAAAAAAAAAAAAAAAAAAAAAAAAAAAAAAAAAAAAAAAAAAAAAAAAAAAAAAAAAAAAAAAAAAAAAAAAAAAAAAAAAAAAAAAAAAAAAAAAAAAAAAAAAAAAAAAAAAAAAAAAAAAAAAAAAAAAAAAAAAAAAAAAAAAAAAAAAAAAAAAAAAAAAAAAAAAAAAAAAAAAAAAAAAAAAAAAAAAAAAAAAAAAAAAAAAAAAAAAAAAAAAAAAAAAAAAAAAAAAAAAAAAAAAAAAAAAAAAAAAAAAAAAAAAAAAAAAAAAAAAAAAAAAAAAAAAAAAAAAAAAAAAAAAAAAAAAAAAAAAAAAAAAAAAAAAAAAAAAAAAAAAAAAAAAAAAAAAAAAAAAAAAAAAAAAAAAAAAAAAAAAAAAAAAAAAAAAAAAAAAAAAAAAAAAAAAAAAAAAAAAAAAAAAAAAAAAAAAAAAAAAAAAAAAAAAAAAAAAAAAAAAAAAAAAAAAAAAAAAAAAAAAAAAAAAAAAAAAAAAAAAAAAAAAAAAAAAAAAAAAAAAAAAAAAAAAAAAAAAAAAAAAAAAAAAAAAAAAAAAAAAAAAAAAAAAAAAAAAAAAAAAAAAAAAAAAAAAAAAAAAAAAAAAAAAAAAAAAAAAAAAAAAAAAAAAAAAAAAAAAAAAAAAAAAAAAAAAAAAAAAAAAAAAAAAAAAAAAAAAAAAAAAAAAAAAAAAAAAAAAAAAAAAAAAAAAAAAAAAAAAAAAAAAAAAAAAAAAAAAAAAAAAAAAAAAAAAAAAAAAAAAAAAAAAAAAAAAAAAAAAAAAAAAAAAAAAAAAAAAAAAAAAAAAAAAAAAAAAAAAAAAAAAAAAAAAAAAAAAAAAAAAAAAAAAAAAAAAAAAAAAAAAAAAAAAAAAAAAAAAAAAAAAAAAAAAAAAAAAAAAAAAAAAAAAAAAAAAAAAAAAAAAAAAAAAAAAAAAAAAAAAAAAAAAAAAAAAAAAAAAAAAAAAAAAAAAAAAAAAAAAAAAAAAAAAAAAAAAAAAAAAAAAAAAAAAAAAAAAAAAAAAAAAAAAAAAAAAAAAAAAAAAAAAAAAAAAAAAAAAAAAAAAAAAAAAAAAAAAAAAAAAAAAAAAAAAAAAAAAAAAAAAAAAAAAAAAAAAAAAAAAAAAAAAAAAAAAAAAAAAAAAAAAAAAAAAAAAAAAAAAAAAAAAAAAAAAAAAAAAAAAAAAAAAAAAAAAAAAAAAAAAAAAAAAAAAAAAAAAAAAAAAAAAAAAAAAAAAAAAAAAAAAAAAAAAAAAAAAAAAAAAAAAAAAAAAAAAAAAAAAAAAAAAAAAAAAAAAAAAAAAAAAAAAAAAAAAAAAAAAAAAAAAAAAAAAAAAAAAAAAAAAAAAAAAAAAAAAAAAAAAAAAAAAAAAAAAAAAAAAAAAAAAAAAAAAAAAAAAAAAAAAAAAAAAAAAAAAAAAAAAAAAAAAAAAAAAAAAAAAAAAAAAAAAAAAAAAAAAAAAAAAAAAAAAAAAAAAAAAAAAAAAAAAAAAAAAAAAAAAAAAAAAAAAAAAAAAAAAAAAAAAAAAAAAAAAAAAAAAAAAAAAAAAAAAAAAAAAAAAAAAAAAAAAAAAAAAAAAAAAAAAAAAAAAAAAAAAAAAAAAAAAAAAAAAAAAAAAAAAAAAAAAAAAAAAAAAAAAAAAAAAAAAAAAAAAAAAAAAAAAAAAAAAAAAAAAAAAAAAAAAAAAAAAAAAAAAAAAAAAAAAAAAAAAAAAAAAAAAAAAAAAAAAAAAAAAAAAAAAAAAAAAAAAAAAAAAAAAAAAAAAAAAAAAAAAAAAAAAAAAAAAAAAAAAAAAAAAAAAAAAAAAAAAAAAAAAAAAAAAAAAAAAAAAAAAAAAAAAAAAAAAAAAAAAAAAAAAAAAAAAAAAAAAAAAAAAAAAAAAAAAAAAAAAAAAAAAAAAAAAAAAAAAAAAAAAAAAAAAAAAAAAAAAAAAAAAAAAAAAAAAAAAAAAAAAAAAAAAAAAAAAAAAAAAAAAAAAAAAAAAAAAAAAAAAAAAAAAAAAAAAAAAAAAAAAAAAAAAAAAAAAAAAAAAAAAAAAAAAAAAAAAAAAAAAAAAAAAAAAAAAAAAAAAAAAAAAAAAAAAAAAAAAAAAAAAAAAAAAAAAAAAAAAAAAAAAAAAAAAAAAAAAAAAAAAAAAAAAAAAAAAAAAAAAAAAAAAAAAAAAAAAAAAAAAAAAAAAAAAAAAAAAAAAAAAAAAAAAAAAAAAAAAAAAAAAAAAAAAAAAAAAAAAAAAAAAAAAAAAAAAAAAAAAAAAAAAAAAAAAAAAAAAAAAAAAAAAAAAAAAAAAAAAAAAAAAAAAAAAAAAAAAAAAAAAAAAAAAAAAAAAAAAAAAAAAAAAAAAAAAAAAAAAAAAAAAAAAAAAAAAAAAAAAAAAAAAAAAAAAAAAAAAAAAAAAAAAAAAAAAAAAAAAAAAAAAAAAAAAAAAAAAAAAAAAAAAAAAAAAAAAAAAAAAAAAAAAAAAAAAAAAAAAAAAAAAAAAAAAAAAAAAAAAAAAAAAAAAAAAAAAAAAAAAAAAAAAAAAAAAAAAAAAAAAAAAAAAAAAAAAAAAAAAAAAAAAAAAAAAAAAAAAAAAAAAAAAAAAAAAAAAAAAAAAAAAAAAAAAAAAAAAAAAAAAAAAAAAAAAAAAAAAAAAAAAAAAAAAAAAAAAAAAAAAAAAAAAAAAAAAAAAAAAAAAAAAAAAAAAAAAAAAAAAAAAAAAAAAAAAAAAAAAAAAAAAAAAAAAAAAAAPZYQIvNHK00oudDEIVJJCVpgBLieDXsGfTY1sBMSQlv1D2Trgd4J2AQCDxalP4uOWEZqKFaKr7XXpGbGwUh12jQ5tU=</c2pa:manifest></metadata><defs><clipPath id="C_back0"><rect x="-50" y="-50" width="300" height="202"/></clipPath><clipPath id="C_front0"><rect x="-50" y="152" width="300" height="400"/></clipPath><clipPath id="C_hole0"><ellipse cx="100" cy="152" rx="12.0" ry="7.6800000000000015"/></clipPath><clipPath id="C_back1"><rect x="-50" y="-50" width="300" height="180"/></clipPath><clipPath id="C_front1"><rect x="-50" y="130" width="300" height="400"/></clipPath><clipPath id="C_hole1"><ellipse cx="100" cy="130" rx="12.0" ry="7.6800000000000015"/></clipPath><clipPath id="C_back2"><rect x="-50" y="-50" width="300" height="158"/></clipPath><clipPath id="C_front2"><rect x="-50" y="108" width="300" height="400"/></clipPath><clipPath id="C_hole2"><ellipse cx="100" cy="108" rx="12.0" ry="7.6800000000000015"/></clipPath></defs><g transform="translate(30,20) scale(1.0)"><rect x="93.0" y="152" width="14" height="220" fill="#0E2A31"/><g clip-path="url(#C_back0)"><polygon points="78.12,132.33 158.01,142.72 127.11,180.76 47.22,170.38" fill="#FFFFFF" stroke="#0E2A31" stroke-width="5" stroke-linejoin="round"/></g><ellipse cx="100" cy="152" rx="12.0" ry="7.6800000000000015" fill="#0E2A31"/><rect x="89.0" y="130" width="22" height="22" fill="#FFFFFF"/><rect x="93.0" y="130" width="14" height="22" fill="#0E2A31"/><g clip-path="url(#C_front0)"><polygon points="78.12,132.33 158.01,142.72 127.11,180.76 47.22,170.38" fill="#FFFFFF" stroke="#0E2A31" stroke-width="5" stroke-linejoin="round"/></g><g clip-path="url(#C_hole0)"><g clip-path="url(#C_front0)"><ellipse cx="100" cy="152" rx="12.0" ry="7.6800000000000015" fill="#0E2A31"/><rect x="93.0" y="150" width="14" height="14" fill="#0E2A31"/></g></g><g clip-path="url(#C_back1)"><polygon points="86.08,109.21 160.93,124.46 115.53,160.10 40.68,144.85" fill="#FFFFFF" stroke="#0E2A31" stroke-width="5" stroke-linejoin="round"/></g><ellipse cx="100" cy="130" rx="12.0" ry="7.6800000000000015" fill="#0E2A31"/><rect x="89.0" y="108" width="22" height="22" fill="#FFFFFF"/><rect x="93.0" y="108" width="14" height="22" fill="#0E2A31"/><g clip-path="url(#C_front1)"><polygon points="86.08,109.21 160.93,124.46 115.53,160.10 40.68,144.85" fill="#FFFFFF" stroke="#0E2A31" stroke-width="5" stroke-linejoin="round"/></g><g clip-path="url(#C_hole1)"><g clip-path="url(#C_front1)"><ellipse cx="100" cy="130" rx="12.0" ry="7.6800000000000015" fill="#0E2A31"/><rect x="93.0" y="128" width="14" height="14" fill="#0E2A31"/></g></g><g clip-path="url(#C_back2)"><polygon points="94.39,86.59 162.34,106.34 103.57,138.70 35.61,118.95" fill="#FFFFFF" stroke="#0E2A31" stroke-width="5" stroke-linejoin="round"/><polygon points="79.33,101.00 110.88,110.17 108.24,111.63 76.69,102.46" fill="#0E2A31" opacity="1"/><polygon points="72.28,104.89 111.92,116.41 110.04,117.44 70.40,105.92" fill="#0E2A31" opacity="1"/><polygon points="66.99,107.80 95.30,116.03 93.42,117.06 65.11,108.84" fill="#0E2A31" opacity="1"/></g><ellipse cx="100" cy="108" rx="12.0" ry="7.6800000000000015" fill="#0E2A31"/><rect x="89.0" y="40" width="22" height="68" fill="#FFFFFF"/><rect x="93.0" y="40" width="14" height="68" fill="#0E2A31"/><g clip-path="url(#C_front2)"><polygon points="94.39,86.59 162.34,106.34 103.57,138.70 35.61,118.95" fill="#FFFFFF" stroke="#0E2A31" stroke-width="5" stroke-linejoin="round"/><polygon points="79.33,101.00 110.88,110.17 108.24,111.63 76.69,102.46" fill="#0E2A31" opacity="1"/><polygon points="72.28,104.89 111.92,116.41 110.04,117.44 70.40,105.92" fill="#0E2A31" opacity="1"/><polygon points="66.99,107.80 95.30,116.03 93.42,117.06 65.11,108.84" fill="#0E2A31" opacity="1"/></g><g clip-path="url(#C_hole2)"><g clip-path="url(#C_front2)"><ellipse cx="100" cy="108" rx="12.0" ry="7.6800000000000015" fill="#0E2A31"/><rect x="93.0" y="106" width="14" height="14" fill="#0E2A31"/></g></g><path d="M24,64 V150 A45,45 0 0 0 69,195 H131 A45,45 0 0 0 176,150 V64" fill="none" stroke="#0E2A31" stroke-width="14"/><polygon points="24,30 41,68 24,60 7,68" fill="#0E2A31"/><polygon points="176,30 193,68 176,60 159,68" fill="#0E2A31"/><polygon points="100,6 117,44 100,36 83,44" fill="#0E2A31"/></g><path d="M306.896 243.408Q299.088 243.408 293.648 240.336Q288.208 237.264 284.944 232.208Q281.68 227.152 280.144 221.32799999999997Q278.608 215.504 278.608 210.256Q278.608 203.216 280.08000000000004 197.2Q281.552 191.184 284.81600000000003 186.64Q288.08 182.096 293.52 179.472Q298.96 176.848 306.896 176.848Q315.856 176.848 323.024 181.13600000000002Q330.192 185.424 334.416 192.912Q338.64 200.4 338.64 210.256Q338.64 220.112 334.352 227.6Q330.064 235.088 322.896 239.248Q315.728 243.408 306.896 243.408ZM302.672 231.632Q309.072 231.632 313.93600000000004 228.94400000000002Q318.8 226.256 321.488 221.392Q324.176 216.528 324.176 210.256Q324.176 200.656 318.544 194.57600000000002Q312.912 188.496 302.672 188.496Q296.272 188.496 291.152 191.18400000000003Q286.032 193.872 283.08799999999997 198.67200000000003Q280.144 203.472 280.144 210.256Q280.144 216.4 282.832 221.264Q285.52 226.128 290.512 228.88Q295.504 231.632 302.672 231.632ZM265.936 178.256H279.504L280.144 193.872V267.6H265.936Z" fill="#0E2A31"/><path d="M350.67199999999997 178.256H364.88V242.0H350.67199999999997ZM387.91999999999996 190.416Q381.008 190.416 376.08 193.36Q371.152 196.304 368.20799999999997 200.52800000000002Q365.264 204.752 364.11199999999997 208.72L363.984 201.552Q364.11199999999997 200.144 364.88 197.264Q365.64799999999997 194.38400000000001 367.248 190.928Q368.848 187.472 371.6 184.208Q374.352 180.944 378.384 178.89600000000002Q382.416 176.848 387.91999999999996 176.848Z" fill="#0E2A31"/><path d="M431.952 243.408Q421.328 243.408 412.88 239.56799999999998Q404.432 235.728 399.568 228.304Q394.704 220.88 394.704 210.256Q394.704 199.76 399.568 192.272Q404.432 184.784 412.88 180.816Q421.328 176.848 431.952 176.848Q442.576 176.848 450.896 180.816Q459.216 184.784 464.016 192.272Q468.81600000000003 199.76 468.81600000000003 210.256Q468.81600000000003 220.88 464.016 228.304Q459.216 235.728 450.896 239.56799999999998Q442.576 243.408 431.952 243.408ZM431.952 231.76Q438.096 231.76 443.216 229.32799999999997Q448.336 226.896 451.344 222.03199999999998Q454.352 217.168 454.352 210.256Q454.352 203.344 451.344 198.48Q448.336 193.61599999999999 443.28 190.992Q438.224 188.368 431.952 188.368Q425.68 188.368 420.56 190.928Q415.44 193.488 412.304 198.352Q409.168 203.216 409.168 210.256Q409.168 217.168 412.24 222.03199999999998Q415.312 226.896 420.496 229.32799999999997Q425.68 231.76 431.952 231.76Z" fill="#0E2A31"/><path d="M478.03200000000004 221.008H491.216Q492.24 225.872 496.46400000000006 228.88Q500.68800000000005 231.888 507.85600000000005 231.888Q512.464 231.888 515.088 230.864Q517.712 229.84 518.8 228.048Q519.888 226.256 519.888 223.952Q519.888 221.136 518.288 219.6Q516.688 218.064 513.616 217.04Q510.54400000000004 216.016 505.93600000000004 215.248Q501.20000000000005 214.096 496.59200000000004 212.688Q491.98400000000004 211.28 488.27200000000005 209.168Q484.56000000000006 207.05599999999998 482.44800000000004 203.79199999999997Q480.336 200.528 480.336 195.792Q480.336 191.44 482.32000000000005 187.92000000000002Q484.30400000000003 184.4 487.88800000000003 181.96800000000002Q491.47200000000004 179.536 496.336 178.192Q501.20000000000005 176.848 506.96000000000004 176.848Q515.2800000000001 176.848 520.8480000000001 179.536Q526.416 182.224 529.296 187.088Q532.176 191.952 532.176 198.224H519.6320000000001Q518.6080000000001 193.10399999999998 515.664 190.8Q512.72 188.496 506.83200000000005 188.496Q500.944 188.496 497.872 190.54399999999998Q494.8 192.59199999999998 494.8 196.176Q494.8 198.864 496.784 200.464Q498.76800000000003 202.064 502.48 203.216Q506.192 204.368 511.184 205.51999999999998Q515.792 206.8 519.888 208.144Q523.984 209.488 527.248 211.47199999999998Q530.5120000000001 213.456 532.432 216.656Q534.3520000000001 219.856 534.3520000000001 224.59199999999998Q534.3520000000001 230.48 531.2160000000001 234.704Q528.08 238.928 522.192 241.168Q516.3040000000001 243.408 507.98400000000004 243.408Q500.68800000000005 243.408 495.37600000000003 241.744Q490.064 240.08 486.54400000000004 237.392Q483.02400000000006 234.704 481.10400000000004 231.632Q479.184 228.56 478.48 225.744Q477.776 222.928 478.03200000000004 221.008Z" fill="#0E2A31"/><path d="M560.208 222.544V210.128H609.616V222.544ZM541.0079999999999 242.0 577.232 159.05599999999998H592.848L629.328 242.0H613.584L581.8399999999999 167.12H588.24L556.6239999999999 242.0Z" fill="#1F8F7A"/><path d="M652.21824 159.05599999999998H666.81024V242.0H652.21824Z" fill="#1F8F7A"/><rect x="642.00" y="231.79" width="35.02" height="10.21" fill="#1F8F7A"/><rect x="642.00" y="159.06" width="35.02" height="10.21" fill="#1F8F7A"/><path d="M723.6204799999999 243.408Q714.7884799999999 243.408 707.55648 239.184Q700.32448 234.96 696.10048 227.472Q691.8764799999999 219.984 691.8764799999999 210.256Q691.8764799999999 200.272 696.03648 192.784Q700.19648 185.296 707.3004799999999 181.072Q714.4044799999999 176.848 723.6204799999999 176.848Q731.68448 176.848 737.18848 179.472Q742.6924799999999 182.096 745.89248 186.64Q749.0924799999999 191.184 750.56448 197.2Q752.03648 203.216 752.03648 210.256Q752.03648 215.504 750.5004799999999 221.32799999999997Q748.96448 227.152 745.70048 232.144Q742.43648 237.136 736.99648 240.272Q731.55648 243.408 723.6204799999999 243.408ZM727.9724799999999 231.632Q735.1404799999999 231.632 740.19648 228.88Q745.25248 226.128 747.8764799999999 221.264Q750.5004799999999 216.4 750.5004799999999 210.256Q750.5004799999999 203.472 747.8124799999999 198.67200000000003Q745.12448 193.872 740.13248 191.18400000000003Q735.1404799999999 188.496 727.9724799999999 188.496Q717.73248 188.496 712.1004800000001 194.57600000000002Q706.46848 200.656 706.46848 210.256Q706.46848 216.528 709.22048 221.392Q711.9724799999999 226.256 716.8364799999999 228.94400000000002Q721.70048 231.632 727.9724799999999 231.632ZM750.5004799999999 152.656H764.8364799999999V242.0H751.5244799999999Q751.26848 239.056 750.8844799999999 234.704Q750.5004799999999 230.352 750.5004799999999 226.896Z" fill="#0E2A31"/><path d="M816.29248 243.408Q805.6684799999999 243.408 797.22048 239.56799999999998Q788.77248 235.728 783.9084799999999 228.304Q779.0444799999999 220.88 779.0444799999999 210.256Q779.0444799999999 199.76 783.9084799999999 192.272Q788.77248 184.784 797.22048 180.816Q805.6684799999999 176.848 816.29248 176.848Q826.91648 176.848 835.23648 180.816Q843.55648 184.784 848.3564799999999 192.272Q853.15648 199.76 853.15648 210.256Q853.15648 220.88 848.3564799999999 228.304Q843.55648 235.728 835.23648 239.56799999999998Q826.91648 243.408 816.29248 243.408ZM816.29248 231.76Q822.43648 231.76 827.55648 229.32799999999997Q832.67648 226.896 835.6844799999999 222.03199999999998Q838.6924799999999 217.168 838.6924799999999 210.256Q838.6924799999999 203.344 835.6844799999999 198.48Q832.67648 193.61599999999999 827.62048 190.992Q822.56448 188.368 816.29248 188.368Q810.0204799999999 188.368 804.90048 190.928Q799.78048 193.488 796.6444799999999 198.352Q793.50848 203.216 793.50848 210.256Q793.50848 217.168 796.58048 222.03199999999998Q799.65248 226.896 804.8364799999999 229.32799999999997Q810.0204799999999 231.76 816.29248 231.76Z" fill="#0E2A31"/><path d="M865.18848 178.256H879.39648V242.0H865.18848ZM906.27648 176.848Q911.78048 176.848 916.4524799999999 178.38400000000001Q921.12448 179.92000000000002 924.51648 183.056Q927.90848 186.192 929.76448 190.8Q931.62048 195.40800000000002 931.62048 201.68V242.0H917.41248V204.496Q917.41248 196.688 913.63648 192.91199999999998Q909.86048 189.136 901.79648 189.136Q895.65248 189.136 890.5964799999999 191.76Q885.54048 194.38400000000001 882.3404800000001 198.544Q879.14048 202.704 878.62848 207.696L878.50048 200.784Q879.14048 196.048 881.31648 191.76Q883.49248 187.472 887.07648 184.07999999999998Q890.66048 180.688 895.52448 178.768Q900.38848 176.848 906.27648 176.848Z" fill="#0E2A31"/></svg>